ISO-10303-21;
HEADER;
FILE_DESCRIPTION (( 'STEP AP214' ),
    '1' );
FILE_NAME ('mag_collar.STEP',
    '2026-08-08T19:20:23',
    ( '' ),
    ( '' ),
    'SwSTEP 2.0',
    'SolidWorks 2026',
    '' );
FILE_SCHEMA (( 'AUTOMOTIVE_DESIGN' ));
ENDSEC;

DATA;
#1 = CARTESIAN_POINT ( 'NONE',  ( 0.000000000000000000, 0.000000000000000000, 6.000000000000000000 ) ) ;
#2 = VECTOR ( 'NONE', #150, 1000.000000000000000 ) ;
#3 = EDGE_CURVE ( 'NONE', #329, #301, #136, .T. ) ;
#4 = CARTESIAN_POINT ( 'NONE',  ( 0.000000000000000000, 0.000000000000000000, 7.500000000000000000 ) ) ;
#5 = ORIENTED_EDGE ( 'NONE', *, *, #158, .T. ) ;
#6 = LINE ( 'NONE', #116, #183 ) ;
#7 = VERTEX_POINT ( 'NONE', #197 ) ;
#8 = FACE_OUTER_BOUND ( 'NONE', #282, .T. ) ;
#9 = ORIENTED_EDGE ( 'NONE', *, *, #91, .F. ) ;
#10 = CIRCLE ( 'NONE', #65, 3.000000000000000444 ) ;
#11 = ADVANCED_FACE ( 'NONE', ( #19 ), #262, .T. ) ;
#12 = ORIENTED_EDGE ( 'NONE', *, *, #187, .T. ) ;
#13 = ORIENTED_EDGE ( 'NONE', *, *, #3, .F. ) ;
#14 = SURFACE_SIDE_STYLE ('',( #330 ) ) ;
#15 = VERTEX_POINT ( 'NONE', #286 ) ;
#16 = AXIS2_PLACEMENT_3D ( 'NONE', #193, #32, #130 ) ;
#17 = ORIENTED_EDGE ( 'NONE', *, *, #114, .F. ) ;
#18 = DIRECTION ( 'NONE',  ( 1.000000000000000000, 0.000000000000000000, 0.000000000000000000 ) ) ;
#19 = FACE_OUTER_BOUND ( 'NONE', #42, .T. ) ;
#20 = VECTOR ( 'NONE', #52, 1000.000000000000000 ) ;
#21 = AXIS2_PLACEMENT_3D ( 'NONE', #259, #51, #317 ) ;
#22 = DIRECTION ( 'NONE',  ( 1.000000000000000000, 0.000000000000000000, 0.000000000000000000 ) ) ;
#23 = DIRECTION ( 'NONE',  ( 1.000000000000000000, 0.000000000000000000, -0.000000000000000000 ) ) ;
#24 = DIRECTION ( 'NONE',  ( 1.000000000000000000, 0.000000000000000000, 0.000000000000000000 ) ) ;
#25 = EDGE_CURVE ( 'NONE', #15, #204, #47, .T. ) ;
#26 = AXIS2_PLACEMENT_3D ( 'NONE', #306, #39, #138 ) ;
#27 = AXIS2_PLACEMENT_3D ( 'NONE', #236, #46, #184 ) ;
#28 = CARTESIAN_POINT ( 'NONE',  ( 0.000000000000000000, 0.000000000000000000, 6.000000000000000000 ) ) ;
#29 = EDGE_LOOP ( 'NONE', ( #12, #5 ) ) ;
#30 = PLANE ( 'NONE',  #206 ) ;
#31 = EDGE_LOOP ( 'NONE', ( #200, #118 ) ) ;
#32 = DIRECTION ( 'NONE',  ( -0.000000000000000000, -0.000000000000000000, -1.000000000000000000 ) ) ;
#33 = ADVANCED_FACE ( 'NONE', ( #50 ), #147, .F. ) ;
#34 = CARTESIAN_POINT ( 'NONE',  ( 0.000000000000000000, 0.000000000000000000, 0.000000000000000000 ) ) ;
#35 = DIRECTION ( 'NONE',  ( -1.000000000000000000, 0.000000000000000000, 0.000000000000000000 ) ) ;
#36 = VERTEX_POINT ( 'NONE', #258 ) ;
#37 = CARTESIAN_POINT ( 'NONE',  ( 0.000000000000000000, 0.000000000000000000, 2.000000000000000000 ) ) ;
#38 = ORIENTED_EDGE ( 'NONE', *, *, #158, .F. ) ;
#39 = DIRECTION ( 'NONE',  ( 0.000000000000000000, 0.000000000000000000, 1.000000000000000000 ) ) ;
#40 = ORIENTED_EDGE ( 'NONE', *, *, #114, .T. ) ;
#41 = CIRCLE ( 'NONE', #27, 4.000000000000000000 ) ;
#42 = EDGE_LOOP ( 'NONE', ( #175, #13, #285, #268 ) ) ;
#43 = ORIENTED_EDGE ( 'NONE', *, *, #137, .F. ) ;
#44 = ORIENTED_EDGE ( 'NONE', *, *, #149, .F. ) ;
#45 = DIRECTION ( 'NONE',  ( -0.000000000000000000, -0.000000000000000000, -1.000000000000000000 ) ) ;
#46 = DIRECTION ( 'NONE',  ( 0.000000000000000000, 0.000000000000000000, 1.000000000000000000 ) ) ;
#47 = LINE ( 'NONE', #69, #305 ) ;
#48 = AXIS2_PLACEMENT_3D ( 'NONE', #1, #195, #35 ) ;
#49 = CLOSED_SHELL ( 'NONE', ( #33, #219, #132, #122, #264, #11, #314, #213, #269, #248, #299 ) ) ;
#50 = FACE_OUTER_BOUND ( 'NONE', #256, .T. ) ;
#51 = DIRECTION ( 'NONE',  ( 0.000000000000000000, 0.000000000000000000, 1.000000000000000000 ) ) ;
#52 = DIRECTION ( 'NONE',  ( -0.000000000000000000, -0.000000000000000000, -1.000000000000000000 ) ) ;
#53 = AXIS2_PLACEMENT_3D ( 'NONE', #310, #119, #23 ) ;
#54 = DIRECTION ( 'NONE',  ( 1.000000000000000000, 0.000000000000000000, 0.000000000000000000 ) ) ;
#55 = ORIENTED_EDGE ( 'NONE', *, *, #187, .F. ) ;
#56 = FACE_OUTER_BOUND ( 'NONE', #31, .T. ) ;
#57 = DIRECTION ( 'NONE',  ( -0.000000000000000000, -0.000000000000000000, -1.000000000000000000 ) ) ;
#58 = DIRECTION ( 'NONE',  ( 1.000000000000000000, 0.000000000000000000, 0.000000000000000000 ) ) ;
#59 = UNCERTAINTY_MEASURE_WITH_UNIT (LENGTH_MEASURE( 1.000000000000000082E-05 ), #226, 'distance_accuracy_value', 'NONE');
#60 = EDGE_CURVE ( 'NONE', #115, #239, #340, .T. ) ;
#61 = APPLICATION_PROTOCOL_DEFINITION ( 'draft international standard', 'automotive_design', 1998, #153 ) ;
#62 = ORIENTED_EDGE ( 'NONE', *, *, #202, .F. ) ;
#63 = PRESENTATION_STYLE_ASSIGNMENT (( #171 ) ) ;
#64 = EDGE_LOOP ( 'NONE', ( #44, #227 ) ) ;
#65 = AXIS2_PLACEMENT_3D ( 'NONE', #121, #161, #292 ) ;
#66 = APPLICATION_PROTOCOL_DEFINITION ( 'draft international standard', 'automotive_design', 1998, #185 ) ;
#67 = EDGE_LOOP ( 'NONE', ( #168, #172, #247, #331 ) ) ;
#68 = ORIENTED_EDGE ( 'NONE', *, *, #176, .T. ) ;
#69 = CARTESIAN_POINT ( 'NONE',  ( 4.000000000000000000, 4.898587196589412829E-16, 7.500000000000000000 ) ) ;
#70 = CIRCLE ( 'NONE', #87, 4.000000000000000000 ) ;
#71 = PRODUCT_DEFINITION_SHAPE ( 'NONE', 'NONE',  #241 ) ;
#72 = FACE_OUTER_BOUND ( 'NONE', #198, .T. ) ;
#73 = EDGE_CURVE ( 'NONE', #15, #230, #83, .T. ) ;
#74 = CARTESIAN_POINT ( 'NONE',  ( 0.000000000000000000, 0.000000000000000000, 7.500000000000000000 ) ) ;
#75 = DIRECTION ( 'NONE',  ( -1.000000000000000000, 0.000000000000000000, 0.000000000000000000 ) ) ;
#76 =( GEOMETRIC_REPRESENTATION_CONTEXT ( 3 ) GLOBAL_UNCERTAINTY_ASSIGNED_CONTEXT ( ( #102 ) ) GLOBAL_UNIT_ASSIGNED_CONTEXT ( ( #134, #229, #140 ) ) REPRESENTATION_CONTEXT ( 'NONE', 'WORKASPACE' ) );
#77 = EDGE_CURVE ( 'NONE', #245, #36, #281, .T. ) ;
#78 = CARTESIAN_POINT ( 'NONE',  ( 0.000000000000000000, 0.000000000000000000, 6.000000000000000000 ) ) ;
#79 = FACE_OUTER_BOUND ( 'NONE', #345, .T. ) ;
#80 = FACE_BOUND ( 'NONE', #64, .T. ) ;
#81 = VERTEX_POINT ( 'NONE', #234 ) ;
#82 = EDGE_CURVE ( 'NONE', #204, #302, #41, .T. ) ;
#83 = CIRCLE ( 'NONE', #222, 4.000000000000000000 ) ;
#84 = DIRECTION ( 'NONE',  ( 0.000000000000000000, 0.000000000000000000, 1.000000000000000000 ) ) ;
#85 = CARTESIAN_POINT ( 'NONE',  ( -3.000000000000000444, 0.000000000000000000, 6.000000000000000000 ) ) ;
#86 = CARTESIAN_POINT ( 'NONE',  ( 3.000000000000000444, 3.673940397442060361E-16, 6.000000000000000000 ) ) ;
#87 = AXIS2_PLACEMENT_3D ( 'NONE', #106, #159, #58 ) ;
#88 = LINE ( 'NONE', #308, #273 ) ;
#89 = ORIENTED_EDGE ( 'NONE', *, *, #146, .F. ) ;
#90 = ORIENTED_EDGE ( 'NONE', *, *, #343, .T. ) ;
#91 = EDGE_CURVE ( 'NONE', #307, #115, #261, .T. ) ;
#92 = DIRECTION ( 'NONE',  ( -0.000000000000000000, -0.000000000000000000, -1.000000000000000000 ) ) ;
#93 = ORIENTED_EDGE ( 'NONE', *, *, #25, .T. ) ;
#94 = PRODUCT_CONTEXT ( 'NONE', #185, 'mechanical' ) ;
#95 = ORIENTED_EDGE ( 'NONE', *, *, #254, .F. ) ;
#96 = CARTESIAN_POINT ( 'NONE',  ( 2.599999999999999645, -1.496662954709578663, 2.000000000000000000 ) ) ;
#97 = AXIS2_PLACEMENT_3D ( 'NONE', #205, #180, #288 ) ;
#98 = CARTESIAN_POINT ( 'NONE',  ( 3.000000000000000444, 3.673940397442060361E-16, 0.000000000000000000 ) ) ;
#99 = CARTESIAN_POINT ( 'NONE',  ( 0.000000000000000000, 0.000000000000000000, 7.500000000000000000 ) ) ;
#100 = AXIS2_PLACEMENT_3D ( 'NONE', #125, #342, #54 ) ;
#101 = CARTESIAN_POINT ( 'NONE',  ( 2.599999999999999645, 1.496662954709578219, 2.000000000000000000 ) ) ;
#102 = UNCERTAINTY_MEASURE_WITH_UNIT (LENGTH_MEASURE( 1.000000000000000082E-05 ), #134, 'distance_accuracy_value', 'NONE');
#103 = PLANE ( 'NONE',  #347 ) ;
#104 = DIRECTION ( 'NONE',  ( 0.000000000000000000, 0.000000000000000000, 1.000000000000000000 ) ) ;
#105 = AXIS2_PLACEMENT_3D ( 'NONE', #154, #263, #232 ) ;
#106 = CARTESIAN_POINT ( 'NONE',  ( 0.000000000000000000, 0.000000000000000000, 6.000000000000000000 ) ) ;
#107 = LINE ( 'NONE', #164, #152 ) ;
#108 = ORIENTED_EDGE ( 'NONE', *, *, #320, .T. ) ;
#109 = DIRECTION ( 'NONE',  ( -0.000000000000000000, -0.000000000000000000, -1.000000000000000000 ) ) ;
#110 = AXIS2_PLACEMENT_3D ( 'NONE', #265, #235, #24 ) ;
#111 =( NAMED_UNIT ( * ) PLANE_ANGLE_UNIT ( ) SI_UNIT ( $, .RADIAN. ) );
#112 = ORIENTED_EDGE ( 'NONE', *, *, #181, .F. ) ;
#113 = ORIENTED_EDGE ( 'NONE', *, *, #224, .F. ) ;
#114 = EDGE_CURVE ( 'NONE', #239, #279, #335, .T. ) ;
#115 = VERTEX_POINT ( 'NONE', #287 ) ;
#116 = CARTESIAN_POINT ( 'NONE',  ( -3.000000000000000444, 0.000000000000000000, 6.000000000000000000 ) ) ;
#117 = EDGE_LOOP ( 'NONE', ( #333, #173 ) ) ;
#118 = ORIENTED_EDGE ( 'NONE', *, *, #77, .F. ) ;
#119 = DIRECTION ( 'NONE',  ( 0.000000000000000000, 0.000000000000000000, 1.000000000000000000 ) ) ;
#120 = AXIS2_PLACEMENT_3D ( 'NONE', #148, #211, #338 ) ;
#121 = CARTESIAN_POINT ( 'NONE',  ( 0.000000000000000000, 0.000000000000000000, 0.000000000000000000 ) ) ;
#122 = ADVANCED_FACE ( 'NONE', ( #155, #208 ), #339, .T. ) ;
#123 = CYLINDRICAL_SURFACE ( 'NONE', #120, 5.000000000000000000 ) ;
#124 = LINE ( 'NONE', #210, #218 ) ;
#125 = CARTESIAN_POINT ( 'NONE',  ( 0.000000000000000000, 0.000000000000000000, 0.000000000000000000 ) ) ;
#126 = ORIENTED_EDGE ( 'NONE', *, *, #192, .F. ) ;
#127 = DIRECTION ( 'NONE',  ( -1.000000000000000000, 0.000000000000000000, 0.000000000000000000 ) ) ;
#128 = ADVANCED_BREP_SHAPE_REPRESENTATION ( 'mag_collar', ( #313, #26 ), #76 ) ;
#129 = ORIENTED_EDGE ( 'NONE', *, *, #3, .T. ) ;
#130 = DIRECTION ( 'NONE',  ( -1.000000000000000000, 0.000000000000000000, 0.000000000000000000 ) ) ;
#131 = DIRECTION ( 'NONE',  ( 1.000000000000000000, 0.000000000000000000, 0.000000000000000000 ) ) ;
#132 = ADVANCED_FACE ( 'NONE', ( #72 ), #123, .T. ) ;
#133 = DIRECTION ( 'NONE',  ( 0.000000000000000000, 0.000000000000000000, 1.000000000000000000 ) ) ;
#134 =( LENGTH_UNIT ( ) NAMED_UNIT ( * ) SI_UNIT ( .MILLI., .METRE. ) );
#135 = ORIENTED_EDGE ( 'NONE', *, *, #146, .T. ) ;
#136 = CIRCLE ( 'NONE', #243, 5.000000000000000000 ) ;
#137 = EDGE_CURVE ( 'NONE', #301, #329, #267, .T. ) ;
#138 = DIRECTION ( 'NONE',  ( 1.000000000000000000, 0.000000000000000000, 0.000000000000000000 ) ) ;
#139 = VERTEX_POINT ( 'NONE', #98 ) ;
#140 =( NAMED_UNIT ( * ) SI_UNIT ( $, .STERADIAN. ) SOLID_ANGLE_UNIT ( ) );
#141 = ORIENTED_EDGE ( 'NONE', *, *, #320, .F. ) ;
#142 = DIRECTION ( 'NONE',  ( -1.000000000000000000, 0.000000000000000000, 0.000000000000000000 ) ) ;
#143 = ORIENTED_EDGE ( 'NONE', *, *, #276, .F. ) ;
#144 = AXIS2_PLACEMENT_3D ( 'NONE', #28, #133, #319 ) ;
#145 = CARTESIAN_POINT ( 'NONE',  ( 0.000000000000000000, 0.000000000000000000, 7.500000000000000000 ) ) ;
#146 = EDGE_CURVE ( 'NONE', #115, #81, #124, .T. ) ;
#147 = CYLINDRICAL_SURFACE ( 'NONE', #97, 4.000000000000000000 ) ;
#148 = CARTESIAN_POINT ( 'NONE',  ( 0.000000000000000000, 0.000000000000000000, 6.000000000000000000 ) ) ;
#149 = EDGE_CURVE ( 'NONE', #230, #15, #312, .T. ) ;
#150 = DIRECTION ( 'NONE',  ( 0.000000000000000000, -1.000000000000000000, 0.000000000000000000 ) ) ;
#151 = AXIS2_PLACEMENT_3D ( 'NONE', #223, #255, #251 ) ;
#152 = VECTOR ( 'NONE', #298, 1000.000000000000000 ) ;
#153 = APPLICATION_CONTEXT ( 'automotive_design' ) ;
#154 = CARTESIAN_POINT ( 'NONE',  ( 0.000000000000000000, 0.000000000000000000, 0.000000000000000000 ) ) ;
#155 = FACE_BOUND ( 'NONE', #284, .T. ) ;
#156 = FACE_OUTER_BOUND ( 'NONE', #194, .T. ) ;
#157 = AXIS2_PLACEMENT_3D ( 'NONE', #74, #182, #22 ) ;
#158 = EDGE_CURVE ( 'NONE', #139, #7, #10, .T. ) ;
#159 = DIRECTION ( 'NONE',  ( 0.000000000000000000, 0.000000000000000000, 1.000000000000000000 ) ) ;
#160 = FACE_OUTER_BOUND ( 'NONE', #67, .T. ) ;
#161 = DIRECTION ( 'NONE',  ( 0.000000000000000000, 0.000000000000000000, 1.000000000000000000 ) ) ;
#162 = EDGE_LOOP ( 'NONE', ( #129, #309 ) ) ;
#163 = AXIS2_PLACEMENT_3D ( 'NONE', #318, #104, #186 ) ;
#164 = CARTESIAN_POINT ( 'NONE',  ( 2.599999999999999645, 1.496662954709578219, 6.000000000000000000 ) ) ;
#165 = CYLINDRICAL_SURFACE ( 'NONE', #151, 3.000000000000000444 ) ;
#166 = ORIENTED_EDGE ( 'NONE', *, *, #91, .T. ) ;
#167 = DIRECTION ( 'NONE',  ( -0.000000000000000000, 0.000000000000000000, -1.000000000000000000 ) ) ;
#168 = ORIENTED_EDGE ( 'NONE', *, *, #25, .F. ) ;
#169 = AXIS2_PLACEMENT_3D ( 'NONE', #321, #244, #293 ) ;
#170 = CIRCLE ( 'NONE', #169, 3.000000000000000444 ) ;
#171 = SURFACE_STYLE_USAGE ( .BOTH. , #14 ) ;
#172 = ORIENTED_EDGE ( 'NONE', *, *, #73, .T. ) ;
#173 = ORIENTED_EDGE ( 'NONE', *, *, #82, .T. ) ;
#174 = CARTESIAN_POINT ( 'NONE',  ( -4.000000000000000000, 0.000000000000000000, 6.000000000000000000 ) ) ;
#175 = ORIENTED_EDGE ( 'NONE', *, *, #343, .F. ) ;
#176 = EDGE_CURVE ( 'NONE', #81, #279, #107, .T. ) ;
#177 = STYLED_ITEM ( 'NONE', ( #63 ), #313 ) ;
#178 = AXIS2_PLACEMENT_3D ( 'NONE', #78, #45, #75 ) ;
#179 = DIRECTION ( 'NONE',  ( 0.000000000000000000, 0.000000000000000000, 1.000000000000000000 ) ) ;
#180 = DIRECTION ( 'NONE',  ( -0.000000000000000000, -0.000000000000000000, -1.000000000000000000 ) ) ;
#181 = EDGE_CURVE ( 'NONE', #329, #36, #221, .T. ) ;
#182 = DIRECTION ( 'NONE',  ( 0.000000000000000000, 0.000000000000000000, 1.000000000000000000 ) ) ;
#183 = VECTOR ( 'NONE', #92, 1000.000000000000000 ) ;
#184 = DIRECTION ( 'NONE',  ( 1.000000000000000000, 0.000000000000000000, 0.000000000000000000 ) ) ;
#185 = APPLICATION_CONTEXT ( 'automotive_design' ) ;
#186 = DIRECTION ( 'NONE',  ( 1.000000000000000000, 0.000000000000000000, -0.000000000000000000 ) ) ;
#187 = EDGE_CURVE ( 'NONE', #7, #139, #207, .T. ) ;
#188 = CARTESIAN_POINT ( 'NONE',  ( -4.000000000000000000, 0.000000000000000000, 7.500000000000000000 ) ) ;
#189 = ORIENTED_EDGE ( 'NONE', *, *, #60, .T. ) ;
#190 = CIRCLE ( 'NONE', #100, 5.000000000000000000 ) ;
#191 = CARTESIAN_POINT ( 'NONE',  ( -5.000000000000000000, 0.000000000000000000, 6.000000000000000000 ) ) ;
#192 = EDGE_CURVE ( 'NONE', #239, #307, #170, .T. ) ;
#193 = CARTESIAN_POINT ( 'NONE',  ( 0.000000000000000000, 0.000000000000000000, 7.500000000000000000 ) ) ;
#194 = EDGE_LOOP ( 'NONE', ( #277, #303, #55, #141, #252, #17 ) ) ;
#195 = DIRECTION ( 'NONE',  ( -0.000000000000000000, -0.000000000000000000, -1.000000000000000000 ) ) ;
#196 = CARTESIAN_POINT ( 'NONE',  ( 3.000000000000000444, 3.673940397442060361E-16, 2.000000000000000000 ) ) ;
#197 = CARTESIAN_POINT ( 'NONE',  ( -3.000000000000000444, 0.000000000000000000, 0.000000000000000000 ) ) ;
#198 = EDGE_LOOP ( 'NONE', ( #43, #90, #334, #112 ) ) ;
#199 =( NAMED_UNIT ( * ) SI_UNIT ( $, .STERADIAN. ) SOLID_ANGLE_UNIT ( ) );
#200 = ORIENTED_EDGE ( 'NONE', *, *, #237, .F. ) ;
#201 = ORIENTED_EDGE ( 'NONE', *, *, #176, .F. ) ;
#202 = EDGE_CURVE ( 'NONE', #302, #204, #70, .T. ) ;
#203 = CARTESIAN_POINT ( 'NONE',  ( 5.000000000000000000, 6.123233995736766282E-16, 7.500000000000000000 ) ) ;
#204 = VERTEX_POINT ( 'NONE', #324 ) ;
#205 = CARTESIAN_POINT ( 'NONE',  ( 0.000000000000000000, 0.000000000000000000, 7.500000000000000000 ) ) ;
#206 = AXIS2_PLACEMENT_3D ( 'NONE', #101, #127, #216 ) ;
#207 = CIRCLE ( 'NONE', #336, 3.000000000000000444 ) ;
#208 = FACE_OUTER_BOUND ( 'NONE', #117, .T. ) ;
#209 = EDGE_CURVE ( 'NONE', #307, #139, #266, .T. ) ;
#210 = CARTESIAN_POINT ( 'NONE',  ( 2.599999999999999645, 1.496662954709578219, 2.000000000000000000 ) ) ;
#211 = DIRECTION ( 'NONE',  ( -0.000000000000000000, -0.000000000000000000, -1.000000000000000000 ) ) ;
#212 = DIRECTION ( 'NONE',  ( -0.000000000000000000, -0.000000000000000000, -1.000000000000000000 ) ) ;
#213 = ADVANCED_FACE ( 'NONE', ( #274, #80 ), #103, .T. ) ;
#214 = DIRECTION ( 'NONE',  ( 1.000000000000000000, 0.000000000000000000, 0.000000000000000000 ) ) ;
#215 = CYLINDRICAL_SURFACE ( 'NONE', #48, 3.000000000000000444 ) ;
#216 = DIRECTION ( 'NONE',  ( 0.000000000000000000, 0.000000000000000000, 1.000000000000000000 ) ) ;
#217 = CIRCLE ( 'NONE', #316, 3.000000000000000444 ) ;
#218 = VECTOR ( 'NONE', #179, 1000.000000000000000 ) ;
#219 = ADVANCED_FACE ( 'NONE', ( #156 ), #215, .F. ) ;
#220 = CARTESIAN_POINT ( 'NONE',  ( -4.000000000000000000, 0.000000000000000000, 7.500000000000000000 ) ) ;
#221 = LINE ( 'NONE', #191, #322 ) ;
#222 = AXIS2_PLACEMENT_3D ( 'NONE', #99, #315, #18 ) ;
#223 = CARTESIAN_POINT ( 'NONE',  ( 0.000000000000000000, 0.000000000000000000, 6.000000000000000000 ) ) ;
#224 = EDGE_CURVE ( 'NONE', #81, #275, #304, .T. ) ;
#225 = ORIENTED_EDGE ( 'NONE', *, *, #224, .T. ) ;
#226 =( LENGTH_UNIT ( ) NAMED_UNIT ( * ) SI_UNIT ( .MILLI., .METRE. ) );
#227 = ORIENTED_EDGE ( 'NONE', *, *, #73, .F. ) ;
#228 = EDGE_LOOP ( 'NONE', ( #126, #327, #9 ) ) ;
#229 =( NAMED_UNIT ( * ) PLANE_ANGLE_UNIT ( ) SI_UNIT ( $, .RADIAN. ) );
#230 = VERTEX_POINT ( 'NONE', #188 ) ;
#231 = DIRECTION ( 'NONE',  ( 1.000000000000000000, 0.000000000000000000, 0.000000000000000000 ) ) ;
#232 = DIRECTION ( 'NONE',  ( 1.000000000000000000, 0.000000000000000000, 0.000000000000000000 ) ) ;
#233 = VECTOR ( 'NONE', #291, 1000.000000000000000 ) ;
#234 = CARTESIAN_POINT ( 'NONE',  ( 2.599999999999999645, 1.496662954709578219, 6.000000000000000000 ) ) ;
#235 = DIRECTION ( 'NONE',  ( 0.000000000000000000, 0.000000000000000000, 1.000000000000000000 ) ) ;
#236 = CARTESIAN_POINT ( 'NONE',  ( 0.000000000000000000, 0.000000000000000000, 6.000000000000000000 ) ) ;
#237 = EDGE_CURVE ( 'NONE', #36, #245, #190, .T. ) ;
#238 = CARTESIAN_POINT ( 'NONE',  ( 5.000000000000000000, 6.123233995736766282E-16, 0.000000000000000000 ) ) ;
#239 = VERTEX_POINT ( 'NONE', #270 ) ;
#240 = PLANE ( 'NONE',  #163 ) ;
#241 = PRODUCT_DEFINITION ( 'UNKNOWN', '', #280, #297 ) ;
#242 = LINE ( 'NONE', #220, #250 ) ;
#243 = AXIS2_PLACEMENT_3D ( 'NONE', #145, #257, #231 ) ;
#244 = DIRECTION ( 'NONE',  ( 0.000000000000000000, 0.000000000000000000, 1.000000000000000000 ) ) ;
#245 = VERTEX_POINT ( 'NONE', #238 ) ;
#246 = SHAPE_DEFINITION_REPRESENTATION ( #71, #128 ) ;
#247 = ORIENTED_EDGE ( 'NONE', *, *, #276, .T. ) ;
#248 = ADVANCED_FACE ( 'NONE', ( #79 ), #30, .T. ) ;
#249 = ORIENTED_EDGE ( 'NONE', *, *, #149, .T. ) ;
#250 = VECTOR ( 'NONE', #57, 1000.000000000000000 ) ;
#251 = DIRECTION ( 'NONE',  ( -1.000000000000000000, 0.000000000000000000, 0.000000000000000000 ) ) ;
#252 = ORIENTED_EDGE ( 'NONE', *, *, #254, .T. ) ;
#253 = FILL_AREA_STYLE_COLOUR ( '', #300 ) ;
#254 = EDGE_CURVE ( 'NONE', #275, #279, #217, .T. ) ;
#255 = DIRECTION ( 'NONE',  ( -0.000000000000000000, -0.000000000000000000, -1.000000000000000000 ) ) ;
#256 = EDGE_LOOP ( 'NONE', ( #249, #93, #62, #143 ) ) ;
#257 = DIRECTION ( 'NONE',  ( 0.000000000000000000, 0.000000000000000000, 1.000000000000000000 ) ) ;
#258 = CARTESIAN_POINT ( 'NONE',  ( -5.000000000000000000, 0.000000000000000000, 0.000000000000000000 ) ) ;
#259 = CARTESIAN_POINT ( 'NONE',  ( 0.000000000000000000, 0.000000000000000000, 2.000000000000000000 ) ) ;
#260 =( GEOMETRIC_REPRESENTATION_CONTEXT ( 3 ) GLOBAL_UNCERTAINTY_ASSIGNED_CONTEXT ( ( #59 ) ) GLOBAL_UNIT_ASSIGNED_CONTEXT ( ( #226, #111, #199 ) ) REPRESENTATION_CONTEXT ( 'NONE', 'WORKASPACE' ) );
#261 = CIRCLE ( 'NONE', #21, 3.000000000000000444 ) ;
#262 = CYLINDRICAL_SURFACE ( 'NONE', #178, 5.000000000000000000 ) ;
#263 = DIRECTION ( 'NONE',  ( 0.000000000000000000, 0.000000000000000000, 1.000000000000000000 ) ) ;
#264 = ADVANCED_FACE ( 'NONE', ( #56, #295 ), #240, .F. ) ;
#265 = CARTESIAN_POINT ( 'NONE',  ( 0.000000000000000000, 0.000000000000000000, 7.500000000000000000 ) ) ;
#266 = LINE ( 'NONE', #86, #20 ) ;
#267 = CIRCLE ( 'NONE', #110, 5.000000000000000000 ) ;
#268 = ORIENTED_EDGE ( 'NONE', *, *, #237, .T. ) ;
#269 = ADVANCED_FACE ( 'NONE', ( #160 ), #271, .F. ) ;
#270 = CARTESIAN_POINT ( 'NONE',  ( 2.599999999999999645, -1.496662954709578663, 2.000000000000000000 ) ) ;
#271 = CYLINDRICAL_SURFACE ( 'NONE', #16, 4.000000000000000000 ) ;
#272 = DIRECTION ( 'NONE',  ( -0.000000000000000000, -0.000000000000000000, -1.000000000000000000 ) ) ;
#273 = VECTOR ( 'NONE', #109, 1000.000000000000000 ) ;
#274 = FACE_OUTER_BOUND ( 'NONE', #162, .T. ) ;
#275 = VERTEX_POINT ( 'NONE', #85 ) ;
#276 = EDGE_CURVE ( 'NONE', #230, #302, #242, .T. ) ;
#277 = ORIENTED_EDGE ( 'NONE', *, *, #192, .T. ) ;
#278 = FACE_OUTER_BOUND ( 'NONE', #228, .T. ) ;
#279 = VERTEX_POINT ( 'NONE', #326 ) ;
#280 = PRODUCT_DEFINITION_FORMATION_WITH_SPECIFIED_SOURCE ( 'ANY', '', #337, .NOT_KNOWN. ) ;
#281 = CIRCLE ( 'NONE', #105, 5.000000000000000000 ) ;
#282 = EDGE_LOOP ( 'NONE', ( #296, #166, #135, #225, #108, #38 ) ) ;
#283 = CARTESIAN_POINT ( 'NONE',  ( -5.000000000000000000, 0.000000000000000000, 7.500000000000000000 ) ) ;
#284 = EDGE_LOOP ( 'NONE', ( #113, #68, #95 ) ) ;
#285 = ORIENTED_EDGE ( 'NONE', *, *, #181, .T. ) ;
#286 = CARTESIAN_POINT ( 'NONE',  ( 4.000000000000000000, 4.898587196589412829E-16, 7.500000000000000000 ) ) ;
#287 = CARTESIAN_POINT ( 'NONE',  ( 2.599999999999999645, 1.496662954709578219, 2.000000000000000000 ) ) ;
#288 = DIRECTION ( 'NONE',  ( -1.000000000000000000, 0.000000000000000000, 0.000000000000000000 ) ) ;
#289 = AXIS2_PLACEMENT_3D ( 'NONE', #37, #167, #142 ) ;
#290 = CARTESIAN_POINT ( 'NONE',  ( 2.599999999999999645, 1.496662954709578219, 2.000000000000000000 ) ) ;
#291 = DIRECTION ( 'NONE',  ( 0.000000000000000000, 0.000000000000000000, 1.000000000000000000 ) ) ;
#292 = DIRECTION ( 'NONE',  ( 1.000000000000000000, 0.000000000000000000, 0.000000000000000000 ) ) ;
#293 = DIRECTION ( 'NONE',  ( -1.000000000000000000, 0.000000000000000000, 0.000000000000000000 ) ) ;
#294 = CARTESIAN_POINT ( 'NONE',  ( 0.000000000000000000, 0.000000000000000000, 6.000000000000000000 ) ) ;
#295 = FACE_BOUND ( 'NONE', #29, .T. ) ;
#296 = ORIENTED_EDGE ( 'NONE', *, *, #209, .F. ) ;
#297 = PRODUCT_DEFINITION_CONTEXT ( 'detailed design', #153, 'design' ) ;
#298 = DIRECTION ( 'NONE',  ( 0.000000000000000000, -1.000000000000000000, 0.000000000000000000 ) ) ;
#299 = ADVANCED_FACE ( 'NONE', ( #278 ), #325, .T. ) ;
#300 = COLOUR_RGB ( '',1.000000000000000000, 1.000000000000000000, 0.5019607843137254832 ) ;
#301 = VERTEX_POINT ( 'NONE', #203 ) ;
#302 = VERTEX_POINT ( 'NONE', #174 ) ;
#303 = ORIENTED_EDGE ( 'NONE', *, *, #209, .T. ) ;
#304 = CIRCLE ( 'NONE', #144, 3.000000000000000444 ) ;
#305 = VECTOR ( 'NONE', #212, 1000.000000000000000 ) ;
#306 = CARTESIAN_POINT ( 'NONE',  ( 0.000000000000000000, 0.000000000000000000, 0.000000000000000000 ) ) ;
#307 = VERTEX_POINT ( 'NONE', #196 ) ;
#308 = CARTESIAN_POINT ( 'NONE',  ( 5.000000000000000000, 6.123233995736766282E-16, 6.000000000000000000 ) ) ;
#309 = ORIENTED_EDGE ( 'NONE', *, *, #137, .T. ) ;
#310 = CARTESIAN_POINT ( 'NONE',  ( 0.000000000000000000, 0.000000000000000000, 6.000000000000000000 ) ) ;
#311 = PRODUCT_RELATED_PRODUCT_CATEGORY ( 'part', '', ( #337 ) ) ;
#312 = CIRCLE ( 'NONE', #157, 4.000000000000000000 ) ;
#313 = MANIFOLD_SOLID_BREP ( 'Boss-Extrude3', #49 ) ;
#314 = ADVANCED_FACE ( 'NONE', ( #8 ), #165, .F. ) ;
#315 = DIRECTION ( 'NONE',  ( 0.000000000000000000, 0.000000000000000000, 1.000000000000000000 ) ) ;
#316 = AXIS2_PLACEMENT_3D ( 'NONE', #294, #323, #214 ) ;
#317 = DIRECTION ( 'NONE',  ( -1.000000000000000000, 0.000000000000000000, 0.000000000000000000 ) ) ;
#318 = CARTESIAN_POINT ( 'NONE',  ( 0.000000000000000000, 0.000000000000000000, 0.000000000000000000 ) ) ;
#319 = DIRECTION ( 'NONE',  ( 1.000000000000000000, 0.000000000000000000, 0.000000000000000000 ) ) ;
#320 = EDGE_CURVE ( 'NONE', #275, #7, #6, .T. ) ;
#321 = CARTESIAN_POINT ( 'NONE',  ( 0.000000000000000000, 0.000000000000000000, 2.000000000000000000 ) ) ;
#322 = VECTOR ( 'NONE', #272, 1000.000000000000000 ) ;
#323 = DIRECTION ( 'NONE',  ( 0.000000000000000000, 0.000000000000000000, 1.000000000000000000 ) ) ;
#324 = CARTESIAN_POINT ( 'NONE',  ( 4.000000000000000000, 4.898587196589412829E-16, 6.000000000000000000 ) ) ;
#325 = PLANE ( 'NONE',  #289 ) ;
#326 = CARTESIAN_POINT ( 'NONE',  ( 2.599999999999999645, -1.496662954709578663, 6.000000000000000000 ) ) ;
#327 = ORIENTED_EDGE ( 'NONE', *, *, #60, .F. ) ;
#328 = FILL_AREA_STYLE ('',( #253 ) ) ;
#329 = VERTEX_POINT ( 'NONE', #283 ) ;
#330 = SURFACE_STYLE_FILL_AREA ( #328 ) ;
#331 = ORIENTED_EDGE ( 'NONE', *, *, #82, .F. ) ;
#332 = MECHANICAL_DESIGN_GEOMETRIC_PRESENTATION_REPRESENTATION (  '', ( #177 ), #260 ) ;
#333 = ORIENTED_EDGE ( 'NONE', *, *, #202, .T. ) ;
#334 = ORIENTED_EDGE ( 'NONE', *, *, #77, .T. ) ;
#335 = LINE ( 'NONE', #96, #233 ) ;
#336 = AXIS2_PLACEMENT_3D ( 'NONE', #34, #84, #131 ) ;
#337 = PRODUCT ( 'mag_collar', 'mag_collar', '', ( #94 ) ) ;
#338 = DIRECTION ( 'NONE',  ( -1.000000000000000000, 0.000000000000000000, 0.000000000000000000 ) ) ;
#339 = PLANE ( 'NONE',  #53 ) ;
#340 = LINE ( 'NONE', #290, #2 ) ;
#341 = PRESENTATION_LAYER_ASSIGNMENT (  '', '', ( #177 ) ) ;
#342 = DIRECTION ( 'NONE',  ( 0.000000000000000000, 0.000000000000000000, 1.000000000000000000 ) ) ;
#343 = EDGE_CURVE ( 'NONE', #301, #245, #88, .T. ) ;
#344 = DIRECTION ( 'NONE',  ( 1.000000000000000000, 0.000000000000000000, -0.000000000000000000 ) ) ;
#345 = EDGE_LOOP ( 'NONE', ( #201, #89, #189, #40 ) ) ;
#346 = DIRECTION ( 'NONE',  ( 0.000000000000000000, 0.000000000000000000, 1.000000000000000000 ) ) ;
#347 = AXIS2_PLACEMENT_3D ( 'NONE', #4, #346, #344 ) ;
ENDSEC;
END-ISO-10303-21;
